<svg width="27" height="29" viewBox="0 0 27 29" fill="none" xmlns="http://www.w3.org/2000/svg">
<mask id="path-1-outside-1_112_2" maskUnits="userSpaceOnUse" x="-1" y="-1" width="28" height="31" fill="black">
<rect fill="white" x="-1" y="-1" width="28" height="31"/>
<path d="M11.3686 0.579999V13H9.01061V5.638L6.65261 10.606H5.06861L2.67461 5.584V13H0.316609V0.579999H2.67461L5.86061 7.438L9.01061 0.579999H11.3686ZM21.4742 13.144C18.5102 13.144 17.0282 11.494 17.0282 8.194V5.35C17.0282 2.05 18.5342 0.399999 21.5462 0.399999C22.9262 0.399999 24.0182 0.789999 24.8222 1.57C25.6262 2.338 26.0282 3.598 26.0282 5.35V8.194C26.0282 9.946 25.6142 11.212 24.7862 11.992C23.9702 12.76 22.8662 13.144 21.4742 13.144ZM21.5462 11.038C22.2662 11.038 22.8002 10.81 23.1482 10.354C23.4962 9.886 23.6702 9.154 23.6702 8.158V5.476C23.6702 4.42 23.4962 3.658 23.1482 3.19C22.8002 2.71 22.2662 2.47 21.5462 2.47C20.7902 2.47 20.2442 2.704 19.9082 3.172C19.5722 3.628 19.4042 4.396 19.4042 5.476V8.158C19.4042 9.178 19.5722 9.916 19.9082 10.372C20.2442 10.816 20.7902 11.038 21.5462 11.038ZM10.3429 16.58V29H7.98489L3.41289 21.242V29H1.05489V16.58H3.41289L7.98489 24.356V16.58H10.3429ZM22.6691 26.588H18.4031L17.6471 29H15.1631L19.5731 16.58H21.4991L25.9271 29H23.4251L22.6691 26.588ZM22.0391 24.626L20.5271 19.856L19.0331 24.626H22.0391Z"/>
</mask>
<path d="M11.3686 0.579999V13H9.01061V5.638L6.65261 10.606H5.06861L2.67461 5.584V13H0.316609V0.579999H2.67461L5.86061 7.438L9.01061 0.579999H11.3686ZM21.4742 13.144C18.5102 13.144 17.0282 11.494 17.0282 8.194V5.35C17.0282 2.05 18.5342 0.399999 21.5462 0.399999C22.9262 0.399999 24.0182 0.789999 24.8222 1.57C25.6262 2.338 26.0282 3.598 26.0282 5.35V8.194C26.0282 9.946 25.6142 11.212 24.7862 11.992C23.9702 12.76 22.8662 13.144 21.4742 13.144ZM21.5462 11.038C22.2662 11.038 22.8002 10.81 23.1482 10.354C23.4962 9.886 23.6702 9.154 23.6702 8.158V5.476C23.6702 4.42 23.4962 3.658 23.1482 3.19C22.8002 2.71 22.2662 2.47 21.5462 2.47C20.7902 2.47 20.2442 2.704 19.9082 3.172C19.5722 3.628 19.4042 4.396 19.4042 5.476V8.158C19.4042 9.178 19.5722 9.916 19.9082 10.372C20.2442 10.816 20.7902 11.038 21.5462 11.038ZM10.3429 16.58V29H7.98489L3.41289 21.242V29H1.05489V16.58H3.41289L7.98489 24.356V16.58H10.3429ZM22.6691 26.588H18.4031L17.6471 29H15.1631L19.5731 16.58H21.4991L25.9271 29H23.4251L22.6691 26.588ZM22.0391 24.626L20.5271 19.856L19.0331 24.626H22.0391Z" fill="#8B5CF6"/>
<path d="M11.3686 0.579999H11.8686V0.079999H11.3686V0.579999ZM11.3686 13V13.5H11.8686V13H11.3686ZM9.01061 13H8.51061V13.5H9.01061V13ZM9.01061 5.638H9.51061L8.55891 5.4236L9.01061 5.638ZM6.65261 10.606V11.106H6.96875L7.10431 10.8204L6.65261 10.606ZM5.06861 10.606L4.61727 10.8212L4.75306 11.106H5.06861V10.606ZM2.67461 5.584L3.12595 5.36884L2.17461 5.584H2.67461ZM2.67461 13V13.5H3.17461V13H2.67461ZM0.316609 13H-0.183391V13.5H0.316609V13ZM0.316609 0.579999V0.079999H-0.183391V0.579999H0.316609ZM2.67461 0.579999L3.12807 0.369338L2.99365 0.079999H2.67461V0.579999ZM5.86061 7.438L5.40715 7.64866L5.86319 8.63029L6.31497 7.6467L5.86061 7.438ZM9.01061 0.579999V0.079999H8.69005L8.55625 0.371302L9.01061 0.579999ZM10.8686 0.579999V13H11.8686V0.579999H10.8686ZM11.3686 12.5H9.01061V13.5H11.3686V12.5ZM9.51061 13V5.638H8.51061V13H9.51061ZM8.55891 5.4236L6.20091 10.3916L7.10431 10.8204L9.46231 5.85239L8.55891 5.4236ZM6.65261 10.106H5.06861V11.106H6.65261V10.106ZM5.51995 10.3908L3.12595 5.36884L2.22327 5.79915L4.61727 10.8212L5.51995 10.3908ZM2.17461 5.584V13H3.17461V5.584H2.17461ZM2.67461 12.5H0.316609V13.5H2.67461V12.5ZM0.816609 13V0.579999H-0.183391V13H0.816609ZM0.316609 1.08H2.67461V0.079999H0.316609V1.08ZM2.22115 0.79066L5.40715 7.64866L6.31406 7.22734L3.12807 0.369338L2.22115 0.79066ZM6.31497 7.6467L9.46497 0.788696L8.55625 0.371302L5.40625 7.2293L6.31497 7.6467ZM9.01061 1.08H11.3686V0.079999H9.01061V1.08ZM24.8222 1.57L24.474 1.92888L24.4768 1.93155L24.8222 1.57ZM24.7862 11.992L25.1289 12.3561L25.1291 12.3559L24.7862 11.992ZM23.1482 10.354L23.5457 10.6574L23.5494 10.6524L23.1482 10.354ZM23.1482 3.19L22.7434 3.4835L22.747 3.48835L23.1482 3.19ZM19.9082 3.172L20.3108 3.46862L20.3144 3.4636L19.9082 3.172ZM19.9082 10.372L19.5056 10.6686L19.5095 10.6737L19.9082 10.372ZM21.4742 12.644C20.084 12.644 19.1288 12.2595 18.5117 11.5724C17.8854 10.8751 17.5282 9.77939 17.5282 8.194H16.5282C16.5282 9.90861 16.9121 11.2879 17.7677 12.2406C18.6326 13.2035 19.9004 13.644 21.4742 13.644V12.644ZM17.5282 8.194V5.35H16.5282V8.194H17.5282ZM17.5282 5.35C17.5282 3.76634 17.8905 2.67189 18.527 1.97457C19.1556 1.2859 20.1296 0.899999 21.5462 0.899999V-0.100001C19.9508 -0.100001 18.6658 0.339097 17.7884 1.30043C16.9189 2.25311 16.5282 3.63366 16.5282 5.35H17.5282ZM21.5462 0.899999C22.8281 0.899999 23.7839 1.25937 24.474 1.92887L25.1704 1.21113C24.2525 0.320633 23.0243 -0.100001 21.5462 -0.100001V0.899999ZM24.4768 1.93155C25.1377 2.56287 25.5282 3.65788 25.5282 5.35H26.5282C26.5282 3.53812 26.1147 2.11313 25.1676 1.20844L24.4768 1.93155ZM25.5282 5.35V8.194H26.5282V5.35H25.5282ZM25.5282 8.194C25.5282 9.88166 25.1279 10.9832 24.4434 11.6281L25.1291 12.3559C26.1005 11.4408 26.5282 10.0103 26.5282 8.194H25.5282ZM24.4435 11.6279C23.7414 12.2887 22.7712 12.644 21.4742 12.644V13.644C22.9612 13.644 24.199 13.2313 25.1289 12.3561L24.4435 11.6279ZM21.5462 11.538C22.3782 11.538 23.0793 11.2685 23.5457 10.6573L22.7507 10.0507C22.5211 10.3515 22.1542 10.538 21.5462 10.538V11.538ZM23.5494 10.6524C23.993 10.0559 24.1702 9.19304 24.1702 8.158H23.1702C23.1702 9.11496 22.9994 9.71614 22.747 10.0556L23.5494 10.6524ZM24.1702 8.158V5.476H23.1702V8.158H24.1702ZM24.1702 5.476C24.1702 4.38887 23.9957 3.49175 23.5494 2.89165L22.747 3.48835C22.9967 3.82424 23.1702 4.45113 23.1702 5.476H24.1702ZM23.553 2.89652C23.0903 2.25834 22.3877 1.97 21.5462 1.97V2.97C22.1447 2.97 22.5101 3.16166 22.7434 3.48348L23.553 2.89652ZM21.5462 1.97C20.6844 1.97 19.9601 2.24234 19.502 2.8804L20.3144 3.4636C20.5283 3.16566 20.896 2.97 21.5462 2.97V1.97ZM19.5057 2.8754C19.0705 3.46598 18.9042 4.37196 18.9042 5.476H19.9042C19.9042 4.42004 20.0739 3.79002 20.3107 3.4686L19.5057 2.8754ZM18.9042 5.476V8.158H19.9042V5.476H18.9042ZM18.9042 8.158C18.9042 9.20972 19.073 10.0814 19.5057 10.6686L20.3107 10.0754C20.0714 9.75064 19.9042 9.14627 19.9042 8.158H18.9042ZM19.5095 10.6737C19.9713 11.2839 20.6939 11.538 21.5462 11.538V10.538C20.8866 10.538 20.5172 10.3481 20.3069 10.0703L19.5095 10.6737ZM10.3429 16.58H10.8429V16.08H10.3429V16.58ZM10.3429 29V29.5H10.8429V29H10.3429ZM7.98489 29L7.55413 29.2539L7.69919 29.5H7.98489V29ZM3.41289 21.242L3.84365 20.9881L2.91289 19.4088V21.242H3.41289ZM3.41289 29V29.5H3.91289V29H3.41289ZM1.05489 29H0.55489V29.5H1.05489V29ZM1.05489 16.58V16.08H0.55489V16.58H1.05489ZM3.41289 16.58L3.84391 16.3266L3.69893 16.08H3.41289V16.58ZM7.98489 24.356L7.55387 24.6094L8.48489 26.1929V24.356H7.98489ZM7.98489 16.58V16.08H7.48489V16.58H7.98489ZM9.84289 16.58V29H10.8429V16.58H9.84289ZM10.3429 28.5H7.98489V29.5H10.3429V28.5ZM8.41565 28.7461L3.84365 20.9881L2.98213 21.4959L7.55413 29.2539L8.41565 28.7461ZM2.91289 21.242V29H3.91289V21.242H2.91289ZM3.41289 28.5H1.05489V29.5H3.41289V28.5ZM1.55489 29V16.58H0.55489V29H1.55489ZM1.05489 17.08H3.41289V16.08H1.05489V17.08ZM2.98187 16.8334L7.55387 24.6094L8.41591 24.1026L3.84391 16.3266L2.98187 16.8334ZM8.48489 24.356V16.58H7.48489V24.356H8.48489ZM7.98489 17.08H10.3429V16.08H7.98489V17.08ZM22.6691 26.588L23.1462 26.4385L23.0364 26.088H22.6691V26.588ZM18.4031 26.588V26.088H18.0358L17.926 26.4385L18.4031 26.588ZM17.6471 29V29.5H18.0144L18.1242 29.1495L17.6471 29ZM15.1631 29L14.6919 28.8327L14.455 29.5H15.1631V29ZM19.5731 16.58V16.08H19.22L19.1019 16.4127L19.5731 16.58ZM21.4991 16.58L21.9701 16.4121L21.8517 16.08H21.4991V16.58ZM25.9271 29V29.5H26.6362L26.3981 28.8321L25.9271 29ZM23.4251 29L22.948 29.1495L23.0578 29.5H23.4251V29ZM22.0391 24.626V25.126H22.7221L22.5157 24.4749L22.0391 24.626ZM20.5271 19.856L21.0037 19.7049L20.5242 18.1923L20.05 19.7066L20.5271 19.856ZM19.0331 24.626L18.556 24.4766L18.3525 25.126H19.0331V24.626ZM22.6691 26.088H18.4031V27.088H22.6691V26.088ZM17.926 26.4385L17.17 28.8505L18.1242 29.1495L18.8802 26.7375L17.926 26.4385ZM17.6471 28.5H15.1631V29.5H17.6471V28.5ZM15.6343 29.1673L20.0443 16.7473L19.1019 16.4127L14.6919 28.8327L15.6343 29.1673ZM19.5731 17.08H21.4991V16.08H19.5731V17.08ZM21.0281 16.7479L25.4561 29.1679L26.3981 28.8321L21.9701 16.4121L21.0281 16.7479ZM25.9271 28.5H23.4251V29.5H25.9271V28.5ZM23.9022 28.8505L23.1462 26.4385L22.192 26.7375L22.948 29.1495L23.9022 28.8505ZM22.5157 24.4749L21.0037 19.7049L20.0505 20.0071L21.5625 24.7771L22.5157 24.4749ZM20.05 19.7066L18.556 24.4766L19.5102 24.7754L21.0042 20.0054L20.05 19.7066ZM19.0331 25.126H22.0391V24.126H19.0331V25.126Z" fill="#8B5CF6" mask="url(#path-1-outside-1_112_2)"/>
</svg>
